<?xml version="1.0" standalone="no"?>
<!DOCTYPE svg PUBLIC "-//W3C//DTD SVG 20010904//EN"
 "http://www.w3.org/TR/2001/REC-SVG-20010904/DTD/svg10.dtd">
<svg version="1.0" xmlns="http://www.w3.org/2000/svg"
 width="700.000000pt" height="700.000000pt" viewBox="0 0 700.000000 700.000000"
 preserveAspectRatio="xMidYMid meet">
<metadata>
Created by potrace 1.14, written by Peter Selinger 2001-2017
</metadata>
<g transform="translate(0.000000,700.000000) scale(0.100000,-0.100000)"
fill="#000000" stroke="none">
<path d="M3260 6994 c-19 -2 -87 -9 -150 -15 -532 -50 -1110 -258 -1565 -562
-432 -289 -820 -696 -1045 -1095 -25 -44 -48 -78 -51 -76 -9 5 -170 -334 -217
-456 -105 -273 -176 -572 -214 -895 -19 -165 -16 -578 6 -755 100 -824 456
-1548 1042 -2120 559 -546 1256 -886 2029 -991 216 -30 631 -32 840 -5 710 90
1317 352 1850 797 250 210 588 598 682 784 27 53 83 138 95 143 4 2 4 10 1 19
-4 10 -2 14 4 10 11 -7 121 216 181 368 290 736 329 1537 112 2302 -187 660
-586 1277 -1111 1715 -547 456 -1152 720 -1864 814 -105 14 -551 27 -625 18z
m-288 -2329 l3 -785 730 785 730 784 515 1 515 0 -778 -778 c-427 -427 -777
-781 -777 -785 0 -4 364 -507 809 -1116 445 -610 812 -1114 815 -1120 5 -8
-139 -11 -506 -11 l-513 1 -579 829 c-319 457 -583 830 -586 830 -4 0 -91 -87
-193 -194 l-187 -194 0 -636 0 -636 -395 0 -395 0 0 1905 0 1905 395 0 395 0
2 -785z m-2615 303 c-3 -8 -6 -5 -6 6 -1 11 2 17 5 13 3 -3 4 -12 1 -19z m-10
-40 c-3 -8 -6 -5 -6 6 -1 11 2 17 5 13 3 -3 4 -12 1 -19z m-10 -40 c-3 -8 -6
-5 -6 6 -1 11 2 17 5 13 3 -3 4 -12 1 -19z m6360 -2700 c-3 -8 -6 -5 -6 6 -1
11 2 17 5 13 3 -3 4 -12 1 -19z m-10 -50 c-3 -8 -6 -5 -6 6 -1 11 2 17 5 13 3
-3 4 -12 1 -19z m-10 -50 c-3 -8 -6 -5 -6 6 -1 11 2 17 5 13 3 -3 4 -12 1 -19z
m-10 -40 c-3 -8 -6 -5 -6 6 -1 11 2 17 5 13 3 -3 4 -12 1 -19z m-20 -70 c-3
-8 -6 -5 -6 6 -1 11 2 17 5 13 3 -3 4 -12 1 -19z m-36 -105 c-12 -20 -14 -14
-5 12 4 9 9 14 11 11 3 -2 0 -13 -6 -23z m-20 -50 c-12 -20 -14 -14 -5 12 4 9
9 14 11 11 3 -2 0 -13 -6 -23z"/>
</g>
</svg>
